<svg xmlns="http://www.w3.org/2000/svg" width="512" height="512" viewBox="0 0 512 512">
<g>
<path d="M 80.00 511.62 C80.00,511.83 177.20,512.00 296.00,512.00 L 79.00 512.00 L 79.00 470.04 L 57.75 469.77 L 36.50 469.50 L 36.25 234.75 L 36.00 0.00 L 477.00 0.00 L 476.75 234.75 L 476.50 469.50 L 298.75 469.75 L 121.00 470.01 L 121.00 490.50 C121.00,501.78 120.73,511.00 120.41,511.00 C120.08,511.00 115.39,508.02 109.97,504.38 L 100.13 497.76 L 90.06 504.51 C84.53,508.22 80.00,511.42 80.00,511.62 ZM 199.36 296.98 C203.33,298.55 206.20,298.94 212.00,298.67 C221.22,298.25 227.67,295.26 233.88,288.52 C240.16,281.70 242.40,276.06 242.42,267.00 C242.44,254.60 236.49,244.36 225.82,238.45 C220.97,235.76 219.66,235.50 211.00,235.52 C202.97,235.53 200.73,235.91 196.54,237.97 C185.42,243.45 178.72,254.12 178.61,266.52 C178.56,272.61 179.02,274.60 181.81,280.27 C185.65,288.06 191.91,294.03 199.36,296.98 ZM 208.88 219.68 C223.09,223.69 239.75,215.46 246.33,201.18 C249.37,194.57 249.29,182.47 246.15,175.50 C243.24,169.01 236.79,162.38 230.50,159.39 C226.45,157.47 223.87,157.02 216.91,157.01 C209.33,157.00 207.61,157.36 202.22,160.05 C191.12,165.59 185.03,175.36 185.01,187.62 C185.00,191.54 185.66,196.61 186.46,198.89 C189.93,208.71 198.63,216.79 208.88,219.68 ZM 352.36 296.98 C359.62,299.86 370.58,299.32 377.50,295.75 C383.93,292.43 390.30,285.83 393.18,279.50 C396.52,272.17 396.40,261.45 392.89,253.95 C389.45,246.59 384.79,241.46 378.59,238.19 C374.10,235.83 372.37,235.51 364.00,235.51 C355.65,235.51 353.89,235.83 349.50,238.16 C346.75,239.61 342.81,242.50 340.73,244.58 C331.18,254.18 328.90,268.26 334.93,280.50 C338.64,288.05 345.00,294.06 352.36,296.98 ZM 258.00 157.00 L 258.00 220.00 L 275.00 220.00 L 275.00 200.88 L 278.62 201.19 C282.04,201.48 282.53,202.01 287.42,210.50 L 292.61 219.50 L 302.30 219.79 C307.64,219.94 312.00,219.83 312.00,219.53 C312.00,219.24 309.30,214.31 306.00,208.58 C302.70,202.85 300.00,197.73 300.00,197.20 C300.00,196.68 300.75,195.63 301.66,194.87 C302.57,194.12 304.37,191.25 305.65,188.50 C310.99,177.05 306.84,164.59 295.79,158.91 C292.57,157.25 289.84,157.00 275.04,157.00 ZM 131.00 157.00 L 131.00 220.00 L 148.00 220.00 L 148.00 201.00 L 154.25 200.99 C163.28,200.99 167.87,199.40 172.65,194.61 C180.78,186.48 181.73,174.46 174.99,165.15 C169.97,158.21 165.84,157.00 147.18,157.00 ZM 131.67 298.33 C132.03,298.70 135.86,299.00 140.17,299.00 L 148.00 299.00 L 148.00 275.07 L 158.75 274.78 L 169.50 274.50 L 169.79 267.78 L 170.09 261.07 L 159.29 260.78 L 148.50 260.50 L 147.90 250.00 L 174.00 250.00 L 174.00 235.00 L 131.00 235.00 L 131.00 266.33 C131.00,283.57 131.30,297.97 131.67,298.33 ZM 332.00 172.00 L 332.00 220.00 L 350.00 220.00 L 350.00 172.08 L 358.75 171.79 L 367.50 171.50 L 367.79 164.25 L 368.09 157.00 L 314.00 157.00 L 314.00 172.00 ZM 252.00 235.00 L 252.00 299.04 L 297.50 298.50 L 297.79 291.28 L 298.09 284.06 L 283.79 283.78 L 269.50 283.50 L 269.23 259.25 L 268.96 235.00 ZM 305.70 298.37 C306.09,298.76 310.03,298.95 314.45,298.79 L 322.50 298.50 L 322.76 266.75 L 323.03 235.00 L 305.00 235.00 L 305.00 266.33 C305.00,283.57 305.32,297.98 305.70,298.37 ZM 369.79 282.01 C364.47,284.42 362.43,284.47 358.02,282.25 C351.13,278.79 347.68,269.63 350.00,261.00 C352.38,252.16 361.72,247.71 369.64,251.64 C375.06,254.34 377.30,257.96 377.80,264.84 C378.41,273.32 375.58,279.38 369.79,282.01 ZM 216.61 282.09 C211.77,284.29 209.56,284.39 205.50,282.60 C197.47,279.05 193.89,268.32 197.61,259.01 C202.10,247.79 217.30,247.15 222.75,257.96 C227.32,267.03 224.39,278.56 216.61,282.09 ZM 225.06 202.30 C222.57,204.39 220.80,205.00 217.17,205.00 C207.87,204.99 202.58,199.01 202.58,188.50 C202.58,178.17 207.89,172.01 216.80,172.00 C222.86,172.00 226.80,174.35 229.06,179.32 C232.78,187.52 231.10,197.22 225.06,202.30 ZM 288.45 184.06 C287.14,185.50 285.37,186.00 281.51,186.00 C278.66,186.00 276.03,185.70 275.67,185.33 C275.30,184.97 275.00,181.82 275.00,178.33 L 275.00 172.00 L 281.38 172.00 C285.77,172.00 288.13,172.46 288.98,173.47 C290.78,175.65 290.47,181.82 288.45,184.06 ZM 160.44 183.78 C159.20,185.55 157.91,186.00 154.11,186.00 C151.48,186.00 149.03,185.70 148.67,185.33 C148.30,184.97 148.00,181.82 148.00,178.33 L 148.00 172.00 L 153.96 172.00 C158.84,172.00 160.12,172.35 160.96,173.93 C162.47,176.75 162.23,181.22 160.44,183.78 Z" fill="rgb(0,0,0)"/>
<path d="M 0.00 256.00 L 0.00 0.00 L 18.00 0.00 L 36.00 0.00 L 36.25 234.75 L 36.50 469.50 L 57.75 469.77 L 79.00 470.04 L 79.00 491.02 L 79.00 512.00 L 39.50 512.00 L 0.00 512.00 L 0.00 256.00 ZM 80.00 511.62 C80.00,511.42 84.53,508.22 90.06,504.51 L 100.13 497.76 L 109.97 504.38 C115.39,508.02 120.08,511.00 120.41,511.00 C120.73,511.00 121.00,501.78 121.00,490.50 L 121.00 470.01 L 298.75 469.75 L 476.50 469.50 L 476.75 234.75 L 477.00 -0.00 L 494.50 -0.00 L 512.00 0.00 L 512.00 256.00 L 512.00 512.00 L 296.00 512.00 C177.20,512.00 80.00,511.83 80.00,511.62 ZM 131.67 298.33 C131.30,297.97 131.00,283.57 131.00,266.33 L 131.00 235.00 L 152.50 235.00 L 174.00 235.00 L 174.00 242.50 L 174.00 250.00 L 160.95 250.00 L 147.90 250.00 L 148.20 255.25 L 148.50 260.50 L 159.29 260.78 L 170.09 261.07 L 169.79 267.78 L 169.50 274.50 L 158.75 274.78 L 148.00 275.07 L 148.00 287.03 L 148.00 299.00 L 140.17 299.00 C135.86,299.00 132.03,298.70 131.67,298.33 ZM 199.36 296.98 C191.91,294.03 185.65,288.06 181.81,280.27 C179.02,274.60 178.56,272.61 178.61,266.52 C178.72,254.12 185.42,243.45 196.54,237.97 C200.73,235.91 202.97,235.53 211.00,235.52 C219.66,235.50 220.97,235.76 225.82,238.45 C236.49,244.36 242.44,254.60 242.42,267.00 C242.40,276.06 240.16,281.70 233.88,288.52 C227.67,295.26 221.22,298.25 212.00,298.67 C206.20,298.94 203.33,298.55 199.36,296.98 ZM 216.61 282.09 C224.39,278.56 227.32,267.03 222.75,257.96 C217.30,247.15 202.10,247.79 197.61,259.01 C193.89,268.32 197.47,279.05 205.50,282.60 C209.56,284.39 211.77,284.29 216.61,282.09 ZM 252.00 267.02 L 252.00 235.00 L 260.48 235.00 L 268.96 235.00 L 269.23 259.25 L 269.50 283.50 L 283.79 283.78 L 298.09 284.06 L 297.79 291.28 L 297.50 298.50 L 274.75 298.77 L 252.00 299.04 L 252.00 267.02 ZM 305.70 298.37 C305.32,297.98 305.00,283.57 305.00,266.33 L 305.00 235.00 L 314.01 235.00 L 323.03 235.00 L 322.76 266.75 L 322.50 298.50 L 314.45 298.79 C310.03,298.95 306.09,298.76 305.70,298.37 ZM 352.36 296.98 C345.00,294.06 338.64,288.05 334.93,280.50 C328.90,268.26 331.18,254.18 340.73,244.58 C342.81,242.50 346.75,239.61 349.50,238.16 C353.89,235.83 355.65,235.51 364.00,235.51 C372.37,235.51 374.10,235.83 378.59,238.19 C384.79,241.46 389.45,246.59 392.89,253.95 C396.40,261.45 396.52,272.17 393.18,279.50 C390.30,285.83 383.93,292.43 377.50,295.75 C370.58,299.32 359.62,299.86 352.36,296.98 ZM 369.79 282.01 C375.58,279.38 378.41,273.32 377.80,264.84 C377.30,257.96 375.06,254.34 369.64,251.64 C361.72,247.71 352.38,252.16 350.00,261.00 C347.68,269.63 351.13,278.79 358.02,282.25 C362.43,284.47 364.47,284.42 369.79,282.01 ZM 208.88 219.68 C198.63,216.79 189.93,208.71 186.46,198.89 C185.66,196.61 185.00,191.54 185.01,187.62 C185.03,175.36 191.12,165.59 202.22,160.05 C207.61,157.36 209.33,157.00 216.91,157.01 C223.87,157.02 226.45,157.47 230.50,159.39 C236.79,162.38 243.24,169.01 246.15,175.50 C249.29,182.47 249.37,194.57 246.33,201.18 C239.75,215.46 223.09,223.69 208.88,219.68 ZM 225.06 202.30 C231.10,197.22 232.78,187.52 229.06,179.32 C226.80,174.35 222.86,172.00 216.80,172.00 C207.89,172.01 202.58,178.17 202.58,188.50 C202.58,199.01 207.87,204.99 217.17,205.00 C220.80,205.00 222.57,204.39 225.06,202.30 ZM 131.00 188.50 L 131.00 157.00 L 147.18 157.00 C165.84,157.00 169.97,158.21 174.99,165.15 C181.73,174.46 180.78,186.48 172.65,194.61 C167.87,199.40 163.28,200.99 154.25,200.99 L 148.00 201.00 L 148.00 210.50 L 148.00 220.00 L 139.50 220.00 L 131.00 220.00 L 131.00 188.50 ZM 160.44 183.78 C162.23,181.22 162.47,176.75 160.96,173.93 C160.12,172.35 158.84,172.00 153.96,172.00 L 148.00 172.00 L 148.00 178.33 C148.00,181.82 148.30,184.97 148.67,185.33 C149.03,185.70 151.48,186.00 154.11,186.00 C157.91,186.00 159.20,185.55 160.44,183.78 ZM 258.00 188.50 L 258.00 157.00 L 275.04 157.00 C289.84,157.00 292.57,157.25 295.79,158.91 C306.84,164.59 310.99,177.05 305.65,188.50 C304.37,191.25 302.57,194.12 301.66,194.87 C300.75,195.63 300.00,196.68 300.00,197.20 C300.00,197.73 302.70,202.85 306.00,208.58 C309.30,214.31 312.00,219.24 312.00,219.53 C312.00,219.83 307.64,219.94 302.30,219.79 L 292.61 219.50 L 287.42 210.50 C282.53,202.01 282.04,201.48 278.62,201.19 L 275.00 200.88 L 275.00 210.44 L 275.00 220.00 L 266.50 220.00 L 258.00 220.00 L 258.00 188.50 ZM 288.45 184.06 C290.47,181.82 290.78,175.65 288.98,173.47 C288.13,172.46 285.77,172.00 281.38,172.00 L 275.00 172.00 L 275.00 178.33 C275.00,181.82 275.30,184.97 275.67,185.33 C276.03,185.70 278.66,186.00 281.51,186.00 C285.37,186.00 287.14,185.50 288.45,184.06 ZM 332.00 196.00 L 332.00 172.00 L 323.00 172.00 L 314.00 172.00 L 314.00 164.50 L 314.00 157.00 L 341.04 157.00 L 368.09 157.00 L 367.79 164.25 L 367.50 171.50 L 358.75 171.79 L 350.00 172.08 L 350.00 196.04 L 350.00 220.00 L 341.00 220.00 L 332.00 220.00 L 332.00 196.00 Z" fill="rgb(254,254,254)"/>
</g>
</svg>